<svg width="146" height="171" viewBox="0 0 146 171" fill="none" xmlns="http://www.w3.org/2000/svg">
<path d="M94.8332 69.2444C85.7704 74.7333 69.9632 84.0222 59.8465 89.5111L41.5101 99.8556L57.3174 120.122C65.9587 131.311 78.1829 147.356 84.7166 155.589C91.0395 164.033 96.7301 171 97.1516 171C97.3624 171 96.3086 166.567 94.6225 160.867C88.7211 142.289 87.6673 136.167 87.6673 118.644C87.6673 98.3778 92.3041 85.5 105.371 70.0889C116.963 55.9444 116.753 55.9444 94.8332 69.2444Z" fill="#EC1515"/>
<path d="M93.1462 10.9778C87.2448 27.8666 71.016 54.8889 60.6886 64.8111C49.7289 75.5778 40.2446 78.1111 30.1279 73.0444C21.6974 68.8222 13.8992 62.2778 13.8992 59.5333C13.8992 58.2667 13.0561 57 12.2131 56.5778C11.1592 56.1555 7.78702 52.1444 4.62557 47.5C1.25336 42.8555 -0.643511 40.9555 0.199542 43.2778C2.30717 49.4 14.1099 85.0778 14.7422 87.6111C15.1637 88.6667 15.796 91.2 16.4283 92.8889C22.3297 108.933 24.8588 116.533 25.2804 118.856C25.7019 120.122 26.3342 122.867 26.9665 124.556C27.5988 126.244 30.1279 133 32.4463 139.756C34.7647 146.3 36.2401 152.211 35.6078 152.844C33.0786 155.378 68.6976 154.744 75.2313 152.211C77.9712 151.156 74.8097 145.878 59.0025 125.611C41.2984 102.811 39.6123 100.067 42.7737 97.5333C44.8814 96.0555 55.6303 89.7222 67.0115 83.1778C86.191 72.4111 87.6663 71.1444 87.8771 64.8111C88.2986 53.4111 89.3524 46.0222 92.7246 29.5555C96.7291 11.1889 98.4152 -1.72938e-05 97.5722 -1.72938e-05C97.3614 -1.72938e-05 95.2538 5.06665 93.1462 10.9778Z" fill="#40C1EC"/>
<path d="M89.3526 110.622C88.2988 116.322 90.6172 142.711 92.9356 149.889C93.7786 152.844 96.097 153.055 108.321 151.789C116.12 150.733 128.133 150.1 134.877 150.1C148.788 149.889 149.631 148.622 137.196 146.511C118.227 143.555 98.4154 127.933 92.9356 111.678L90.4064 104.5L89.3526 110.622Z" fill="#40C1EC"/>
</svg>
